<svg id="Capa_1" enable-background="new 0 0 512 512" height="512" viewBox="0 0 512 512" width="512" xmlns="http://www.w3.org/2000/svg"><g><path d="m460.537 204.428c-.001-112.903-91.526-204.428-204.428-204.428h-.219c-112.901 0-204.426 91.525-204.427 204.428 0 84.663 58.844 157.235 112.525 217.065 21.269 23.705 58.538 63.41 78.532 84.621 7.392 7.842 19.847 7.844 27.263.024 26.439-27.875 52.573-56.052 78.228-84.646 53.682-59.828 112.526-132.4 112.526-217.064z" fill="#e2f6eb"/><path d="m460.536 204.428c0 84.666-58.841 157.24-112.524 217.062-25.66 28.6-51.794 56.778-78.228 84.646-7.418 7.821-19.871 7.821-27.259-.021-.464-.495-.939-.99-1.413-1.506 3.033-.898 5.881-2.59 8.223-5.066 26.434-27.878 52.568-56.056 78.228-84.646 53.683-59.832 112.524-132.406 112.524-217.062 0-87.173-54.57-161.605-131.405-190.999 87.421 23.193 151.854 102.866 151.854 197.592z" fill="#ceefdd"/><circle cx="256" cy="204.427" fill="#fdf6ec" r="160.552"/><path d="m416.552 204.428c0 88.669-71.883 160.552-160.552 160.552-23.73 0-46.254-5.148-66.528-14.393 14.692 4.426 30.262 6.81 46.398 6.81 88.669 0 160.552-71.883 160.552-160.552 0-64.939-38.557-120.871-94.025-146.159 66.055 19.902 114.155 81.209 114.155 153.742z" fill="#fcead0"/><path d="m340.573 291.529h-169.146c-3.315 0-6.003-2.687-6.003-6.003v-36.91h181.151v36.91c.001 3.315-2.687 6.003-6.002 6.003z" fill="#fddeb0"/><path d="m346.578 255.649v29.875c0 3.322-2.693 6.005-6.005 6.005h-20.635c3.312 0 6.005-2.683 6.005-6.005v-29.875z" fill="#fccd7f"/><path d="m368.219 205.007c-2.988-15.158-12.181-27.39-24.916-35.856-6.253-4.156-13.104-7.356-20.099-10.056-9.98-3.852-21.861-6.332-32.314-8.631-11.268-2.479-14.876-3.09-20.328-6.153-.011-.006-11.968-5.975-14.56-16.251-2.592 10.277-14.549 16.245-14.56 16.251-5.452 3.064-9.06 3.674-20.328 6.153-10.453 2.3-22.334 4.779-32.314 8.631-6.995 2.7-13.847 5.899-20.099 10.056-12.735 8.466-21.928 20.698-24.916 35.856-3.047 15.459 1.168 31.605 12.346 42.893 1.562 1.578 9.297 7.75 9.297 7.75h90.576s90.445 0 90.576 0c0 0 7.734-6.172 9.297-7.75 11.173-11.289 15.389-27.435 12.342-42.893z" fill="#6ed5a1"/><g fill="#46cc8d"><path d="m355.875 247.896c-1.568 1.579-9.296 7.759-9.296 7.759h-20.635s7.728-6.18 9.296-7.759c14.838-14.935 20.976-41.257 6.309-58.341-6.978-8.128-14.993-12.486-31.462-16.856 0 0-22.065-5.653-26.215-7.394-5.738-2.407-12.29-4.175-17.813-7.058-6.964-3.635-17.023-10.046-23.342-14.648 3.704-2.683 11.704-9.29 13.283-15.543 2.59 10.276 14.548 16.25 14.558 16.25 5.458 3.064 9.059 3.673 20.326 6.16 10.462 2.301 22.338 4.777 32.315 8.626 6.995 2.703 13.846 5.902 20.099 10.06 12.742 8.46 21.935 20.697 24.917 35.854 3.053 15.455-1.167 31.602-12.34 42.89z"/><path d="m273.49 97.229c-3.585-2.323-8.377-1.299-10.702 2.288-1.244 1.921-3.35 3.069-5.632 3.069-3.695 0-6.7-3.006-6.7-6.7 0-3.246 2.31-6.019 5.492-6.594 4.207-.76 7-4.784 6.241-8.99-.761-4.207-4.789-7-8.99-6.241-10.557 1.906-18.22 11.084-18.22 21.824 0 9.064 5.473 16.866 13.283 20.301v26.6c0 4.274 3.464 7.738 7.738 7.738s7.738-3.464 7.738-7.738v-25.722c4.892-1.514 9.165-4.695 12.04-9.134 2.323-3.587 1.299-8.379-2.288-10.701z"/></g></g></svg>